<?xml version="1.0" standalone="no"?>
<!DOCTYPE svg PUBLIC "-//W3C//DTD SVG 20010904//EN"
 "http://www.w3.org/TR/2001/REC-SVG-20010904/DTD/svg10.dtd">
<svg version="1.0" xmlns="http://www.w3.org/2000/svg"
 width="300.000000pt" height="300.000000pt" viewBox="0 0 300.000000 300.000000"
 preserveAspectRatio="xMidYMid meet">
<metadata>
Created by potrace 1.14, written by Peter Selinger 2001-2017
</metadata>
<g transform="translate(0.000000,300.000000) scale(0.100000,-0.100000)"
fill="#000000" stroke="none">
<path d="M945 2272 c-3 -3 -12 -7 -19 -8 -48 -7 -142 -42 -206 -76 -87 -47
-100 -56 -100 -72 0 -6 7 -2 16 9 8 11 18 19 22 18 4 0 44 17 89 38 44 22 91
42 103 44 12 2 30 7 40 10 117 37 193 15 255 -72 47 -65 90 -113 104 -113 5 0
16 -3 25 -6 25 -10 19 10 -6 21 -13 6 -42 39 -66 75 -23 35 -54 75 -70 87 -15
12 -33 27 -39 33 -14 12 -138 22 -148 12z"/>
<path d="M1510 2276 c0 -2 14 -6 30 -8 17 -3 30 -1 30 4 0 4 -13 8 -30 8 -16
0 -30 -2 -30 -4z"/>
<path d="M1585 2270 c-3 -5 -1 -10 4 -10 6 0 11 5 11 10 0 6 -2 10 -4 10 -3 0
-8 -4 -11 -10z"/>
<path d="M1610 2268 c0 -10 9 -15 28 -14 15 1 33 -3 40 -8 6 -4 12 -6 12 -2 0
3 11 1 25 -4 16 -6 25 -6 25 0 0 6 -4 11 -10 11 -5 1 -18 2 -27 4 -10 1 -26 5
-36 10 -10 4 -21 5 -24 1 -3 -3 -12 -1 -20 5 -10 9 -13 8 -13 -3z"/>
<path d="M1770 2228 c14 -6 27 -12 30 -13 73 -18 206 -87 285 -145 42 -32 61
-39 115 -45 36 -3 81 -8 100 -11 19 -3 53 -7 75 -10 50 -7 63 -9 100 -17 17
-4 41 -10 55 -13 14 -3 30 -6 35 -7 6 -2 16 -6 23 -10 6 -5 12 -6 12 -4 0 3
32 -3 71 -13 39 -10 78 -16 87 -13 10 4 13 2 8 -5 -4 -7 0 -10 12 -7 25 4 79
-43 87 -77 4 -14 22 -49 40 -77 22 -36 31 -60 29 -81 -2 -20 1 -30 10 -30 9 0
12 10 10 33 -6 55 -14 77 -34 97 -11 11 -21 29 -21 40 -2 32 -3 34 -24 60 -37
45 -64 55 -259 100 -22 5 -43 7 -48 4 -4 -3 -8 -1 -8 3 0 5 -8 9 -17 10 -36 3
-224 29 -288 39 -16 3 -47 7 -68 9 -20 2 -56 17 -80 33 -84 58 -231 135 -257
135 -8 0 -17 3 -20 7 -3 4 -23 10 -45 13 -35 6 -37 5 -15 -5z"/>
<path d="M1665 2217 c11 -6 22 -12 25 -12 3 0 31 -13 63 -29 66 -33 149 -104
130 -112 -29 -13 -9 -21 50 -22 34 -1 79 -3 100 -5 20 -3 37 -3 37 0 0 9 -29
33 -39 33 -6 0 -11 4 -11 9 0 8 -125 73 -200 105 -52 21 -119 38 -130 31 -5
-3 -11 -1 -15 5 -3 5 -12 10 -18 10 -7 0 -3 -6 8 -13z"/>
<path d="M990 2120 c0 -3 -10 -6 -22 -7 -12 -1 -28 -9 -37 -17 -13 -14 -12
-15 10 -11 83 17 149 -3 149 -46 0 -31 46 -20 50 11 4 29 0 40 -25 56 -22 15
-125 26 -125 14z"/>
<path d="M590 2110 c-8 -5 -12 -12 -9 -15 4 -3 12 1 19 10 14 17 11 19 -10 5z"/>
<path d="M1435 2029 c-41 -6 -37 -7 55 -14 30 -2 71 -7 90 -10 19 -4 48 -8 65
-11 40 -5 136 -25 155 -32 8 -3 24 -7 35 -9 28 -4 174 -63 210 -83 79 -45 105
-63 105 -72 0 -5 4 -7 9 -3 5 3 12 1 16 -5 3 -5 16 -15 27 -21 l21 -11 -21 30
c-60 83 -182 161 -304 194 -27 6 -48 15 -48 18 0 4 -21 8 -46 9 -26 0 -50 3
-54 6 -19 12 -259 22 -315 14z"/>
<path d="M1350 2021 c0 -5 9 -7 20 -4 11 3 20 7 20 9 0 2 -9 4 -20 4 -11 0
-20 -4 -20 -9z"/>
<path d="M1915 2010 c3 -5 8 -10 11 -10 2 0 4 5 4 10 0 6 -5 10 -11 10 -5 0
-7 -4 -4 -10z"/>
<path d="M1942 2014 c4 -4 22 -8 40 -9 18 -2 33 -4 33 -5 0 -1 20 -4 44 -6 24
-2 62 -9 84 -14 23 -5 45 -7 49 -4 4 3 8 0 8 -6 0 -6 4 -9 8 -6 5 3 31 -2 58
-10 27 -8 62 -17 78 -20 16 -2 37 -9 48 -15 10 -5 23 -7 28 -4 5 3 11 1 14 -4
3 -5 18 -12 33 -15 39 -9 235 -86 251 -99 8 -6 12 -6 12 1 0 19 -88 89 -158
125 -37 19 -95 41 -129 48 -34 7 -60 15 -58 18 2 3 -14 5 -36 5 -21 -1 -39 1
-39 5 0 3 -26 7 -58 8 -31 1 -115 5 -187 8 -71 4 -126 3 -123 -1z"/>
<path d="M420 1939 c-86 -13 -105 -19 -148 -39 -23 -11 -40 -25 -36 -31 4 -6
11 -6 20 2 8 6 14 9 14 7 0 -3 26 1 58 8 88 21 381 10 525 -20 15 -3 39 -8 55
-12 82 -16 319 -82 375 -103 25 -10 29 -8 54 32 32 51 41 60 84 86 86 53 199
0 246 -116 17 -42 33 -56 33 -30 0 7 11 24 25 39 14 15 25 30 25 33 0 14 -68
70 -109 89 -63 29 -193 29 -272 0 -43 -17 -114 -25 -114 -14 0 1 -9 3 -20 4
-55 8 -112 17 -125 21 -14 3 -36 6 -155 21 -22 3 -53 7 -70 9 -137 18 -389 25
-465 14z"/>
<path d="M1620 1945 c0 -3 21 -16 48 -28 58 -27 125 -67 134 -81 5 -8 8 -8 8
0 0 15 -60 74 -77 74 -8 0 -11 5 -8 10 4 6 10 8 14 6 4 -3 25 -7 46 -9 72 -9
228 -63 245 -85 8 -11 72 -43 77 -39 4 4 -58 47 -110 75 -44 25 -135 60 -172
67 -44 9 -205 16 -205 10z"/>
<path d="M2775 1850 c14 -22 25 -44 25 -49 0 -5 5 -13 11 -16 5 -4 3 10 -5 30
-22 51 -20 55 10 20 26 -29 26 -29 19 -5 -8 29 -43 59 -68 60 -15 0 -14 -5 8
-40z"/>
<path d="M307 1842 c-27 -28 -41 -70 -15 -44 24 24 58 13 104 -33 25 -25 42
-50 39 -55 -3 -6 -1 -10 4 -10 6 0 11 -9 11 -19 0 -11 4 -22 10 -26 14 -8 5
42 -18 103 -11 28 -18 52 -15 52 3 0 -8 14 -25 30 -39 37 -61 38 -95 2z"/>
<path d="M1485 1770 c-43 -9 -66 -24 -98 -60 -29 -32 -61 -106 -52 -120 3 -5
1 -11 -4 -15 -6 -3 -8 -11 -6 -18 2 -7 6 -27 9 -45 6 -47 43 -114 76 -140 l30
-23 -26 52 c-24 46 -26 60 -21 120 6 71 16 96 57 142 47 54 133 80 176 52 17
-11 21 -11 21 0 0 17 -63 52 -102 57 -16 3 -43 2 -60 -2z"/>
<path d="M1870 1766 c0 -2 7 -7 16 -10 8 -3 12 -2 9 4 -6 10 -25 14 -25 6z"/>
<path d="M1925 1750 c27 -12 43 -12 25 0 -8 5 -22 9 -30 9 -10 0 -8 -3 5 -9z"/>
<path d="M315 1740 c-22 -9 -55 -45 -55 -60 0 -6 -5 -10 -12 -10 -6 0 -9 -3
-5 -6 3 -3 1 -17 -4 -31 -9 -24 -12 -120 -6 -173 4 -33 32 -96 46 -104 12 -8
15 16 4 28 -10 10 -14 34 -18 109 -5 120 40 217 102 217 l28 1 -24 19 c-26 22
-27 22 -56 10z"/>
<path d="M1970 1741 c0 -5 15 -12 33 -15 17 -3 43 -8 57 -11 14 -3 36 -7 50
-10 14 -3 35 -7 47 -9 11 -3 43 -8 70 -12 26 -3 57 -8 68 -11 11 -2 61 -6 110
-8 50 -3 92 -5 95 -6 3 -1 10 0 15 1 6 1 39 3 75 5 84 4 145 13 179 27 14 6
29 12 33 12 4 1 13 7 20 15 11 12 10 12 -2 5 -8 -5 -26 -10 -40 -12 -13 -2
-28 -8 -31 -14 -4 -7 -9 -7 -13 1 -4 6 -15 7 -29 2 -17 -6 -332 -8 -332 -2 0
1 -33 4 -74 6 -41 3 -86 7 -100 10 -39 7 -112 17 -146 20 -16 2 -30 4 -30 5 0
1 -12 4 -27 6 -16 3 -28 1 -28 -5z"/>
<path d="M331 1629 c-21 -22 -24 -39 -24 -119 0 -83 4 -101 24 -121 19 -19 22
-19 38 -5 20 19 20 18 25 111 3 76 -6 121 -28 143 -11 12 -17 10 -35 -9z"/>
<path d="M1550 1642 c-63 -22 -89 -114 -50 -177 56 -91 177 -48 185 65 4 71
-71 134 -135 112z"/>
<path d="M2935 1630 c3 -5 8 -10 11 -10 2 0 4 5 4 10 0 6 -5 10 -11 10 -5 0
-7 -4 -4 -10z"/>
<path d="M2036 1609 c3 -5 11 -9 19 -9 26 0 83 -65 90 -102 5 -26 11 -35 23
-33 10 2 50 4 90 4 73 1 89 13 32 25 -17 3 -48 22 -70 42 -22 21 -53 45 -69
55 -31 19 -125 33 -115 18z"/>
<path d="M2854 1608 c-11 -5 -34 -31 -50 -58 -16 -26 -47 -59 -69 -74 l-40
-26 39 5 c46 5 73 27 93 74 16 39 30 54 56 64 10 4 15 11 12 17 -7 12 -14 12
-41 -2z"/>
<path d="M2930 1599 c0 -5 5 -7 10 -4 6 3 10 8 10 11 0 2 -4 4 -10 4 -5 0 -10
-5 -10 -11z"/>
<path d="M674 1552 c4 -3 14 -7 22 -8 9 -1 13 0 10 4 -4 3 -14 7 -22 8 -9 1
-13 0 -10 -4z"/>
<path d="M726 1547 c2 -7 21 -12 42 -13 39 -1 124 -10 157 -17 38 -8 140 -20
153 -18 6 1 12 -2 12 -6 0 -4 15 -9 33 -10 47 -4 58 -6 52 -11 -2 -2 -120 -5
-262 -5 -218 0 -295 -4 -401 -19 -6 -1 -10 -4 -7 -7 8 -8 35 -10 35 -3 0 7
313 6 496 -2 115 -5 226 -21 256 -37 10 -5 18 -7 18 -4 0 17 -62 125 -73 126
-6 1 -34 2 -62 4 -27 2 -95 6 -150 10 -55 3 -140 8 -190 11 -49 2 -95 6 -102
9 -7 2 -10 -1 -7 -8z"/>
<path d="M1710 1478 c0 -7 3 -24 7 -37 6 -24 9 -24 93 -7 14 3 36 8 50 11 14
3 52 7 84 10 70 6 86 14 30 16 -21 1 -64 2 -94 3 -30 1 -72 -4 -93 -11 -34
-11 -38 -10 -50 7 -13 23 -27 26 -27 8z"/>
<path d="M439 1241 c-17 -13 -19 -21 -10 -43 11 -28 8 -172 -3 -199 -9 -20 21
-52 41 -45 8 3 19 6 25 6 6 0 7 21 3 54 -8 59 -2 78 20 70 13 -5 13 -18 -1
-86 -4 -20 0 -29 16 -38 11 -6 28 -9 38 -6 15 5 17 23 17 151 l0 146 -35 -3
c-37 -3 -40 -10 -27 -70 3 -16 0 -31 -8 -38 -20 -17 -28 4 -20 59 6 43 4 49
-14 54 -12 3 -30 -2 -42 -12z"/>
<path d="M140 1228 c-54 -58 -51 -198 5 -254 20 -20 28 -22 53 -13 65 22 88
162 41 251 -23 44 -66 51 -99 16z m63 -132 c1 -44 -2 -70 -9 -73 -6 -2 -14 3
-18 12 -11 29 -19 123 -12 141 6 16 8 16 22 3 9 -10 15 -39 17 -83z"/>
<path d="M307 1232 c-40 -44 -28 -136 23 -174 16 -11 26 -27 23 -34 -9 -24
-34 -15 -46 16 -17 44 -33 38 -28 -10 4 -41 13 -58 36 -68 55 -25 105 33 97
114 -3 31 -18 52 -56 78 -13 9 -17 19 -12 32 7 18 9 17 31 -8 12 -15 26 -24
29 -21 9 9 7 52 -3 72 -13 24 -73 26 -94 3z"/>
<path d="M716 1234 c-3 -9 -6 -26 -6 -39 0 -36 -36 -179 -51 -203 -15 -24 -11
-31 19 -37 29 -5 46 18 33 43 -9 16 -7 21 11 25 31 8 38 0 31 -33 -3 -17 -2
-30 3 -31 5 0 18 -2 30 -4 12 -3 30 2 40 10 17 12 17 16 5 36 -7 12 -22 58
-32 101 -10 43 -25 94 -33 113 -16 37 -40 46 -50 19z m22 -153 c-15 -6 -20 7
-12 31 l8 23 6 -25 c3 -14 2 -27 -2 -29z"/>
<path d="M1801 1236 c-15 -17 -11 -48 5 -53 17 -6 46 26 42 46 -4 21 -32 25
-47 7z"/>
<path d="M2548 1239 c-22 -12 -23 -48 -3 -55 21 -8 47 15 43 39 -4 25 -17 30
-40 16z"/>
<path d="M1006 1186 c-27 -36 -33 -56 -16 -56 6 0 10 -31 10 -73 0 -59 4 -77
19 -91 23 -21 49 -11 57 21 5 18 2 28 -10 35 -24 14 -22 95 3 103 22 7 18 45
-5 45 -8 0 -14 10 -14 25 0 34 -13 31 -44 -9z"/>
<path d="M853 1162 c-8 -5 -11 -27 -8 -67 2 -33 4 -72 5 -87 0 -36 27 -63 46
-47 10 9 17 9 28 0 10 -9 18 -7 32 6 17 16 19 30 16 111 -3 79 -6 92 -21 92
-31 0 -38 -19 -33 -91 3 -44 1 -69 -6 -69 -15 0 -18 18 -17 93 1 68 -8 81 -42
59z"/>
<path d="M1117 1152 c-22 -24 -35 -99 -25 -139 25 -97 122 -59 121 47 -2 91
-53 140 -96 92z m47 -95 c2 -26 0 -47 -5 -47 -12 0 -24 57 -20 100 2 31 21 -8
25 -53z"/>
<path d="M1302 1161 c-10 -6 -14 -36 -15 -101 -2 -78 1 -93 16 -101 32 -18 78
27 47 46 -5 3 -10 24 -10 47 0 36 2 39 16 27 20 -17 34 2 34 48 0 39 -18 53
-37 28 -12 -17 -13 -17 -13 -2 0 18 -17 22 -38 8z"/>
<path d="M1420 1148 c-11 -12 -21 -31 -21 -42 -8 -116 27 -177 80 -139 12 8
21 23 21 34 0 16 -5 18 -25 13 -19 -5 -25 -2 -25 10 0 9 -1 19 -2 24 -2 4 9 7
24 7 36 1 42 8 34 49 -12 64 -49 83 -86 44z m43 -24 c7 -7 -2 -34 -12 -34 -4
0 -7 9 -8 20 -2 19 8 26 20 14z"/>
<path d="M1531 1149 c-15 -14 -20 -26 -15 -38 10 -21 10 -138 0 -173 -7 -22
-3 -29 19 -44 26 -17 28 -17 41 0 9 13 10 24 3 37 -5 11 -6 20 -2 20 4 1 13 2
18 4 6 1 15 3 21 3 32 5 50 143 25 190 -13 24 -46 30 -54 10 -4 -10 -6 -10 -6
0 -1 18 -25 14 -50 -9z m71 -80 c2 -45 -2 -61 -14 -56 -12 3 -19 72 -10 90 7
14 23 -8 24 -34z"/>
<path d="M1686 1148 c-18 -26 -21 -58 -5 -58 6 0 13 9 16 20 7 28 23 25 23 -4
0 -16 -7 -27 -20 -31 -28 -9 -43 -42 -36 -80 7 -37 22 -47 49 -33 12 6 23 6
31 -1 26 -21 35 10 29 97 -6 87 -18 112 -53 112 -10 0 -26 -10 -34 -22z m31
-140 c-3 -7 -5 -2 -5 12 0 14 2 19 5 13 2 -7 2 -19 0 -25z"/>
<path d="M1810 1157 c-11 -9 -15 -35 -16 -104 0 -51 2 -93 5 -94 3 0 14 -2 23
-4 28 -5 33 15 30 118 -3 99 -9 111 -42 84z"/>
<path d="M1892 1161 c-9 -5 -14 -37 -16 -104 -2 -92 -1 -96 21 -100 13 -2 31
2 40 9 15 11 16 16 6 33 -17 28 -18 100 -1 83 18 -18 25 -15 36 16 10 29 0 72
-17 72 -6 0 -15 -8 -20 -17 -10 -17 -10 -17 -11 0 0 18 -17 22 -38 8z"/>
<path d="M2060 1151 c-16 -30 -12 -73 10 -106 25 -38 25 -57 0 -27 -22 27 -29
19 -23 -25 6 -40 45 -51 75 -21 16 16 19 29 15 60 -3 22 -12 47 -21 57 -9 10
-16 24 -16 32 1 11 4 10 14 -3 7 -10 16 -18 20 -18 8 0 8 33 0 54 -9 23 -61
21 -74 -3z"/>
<path d="M2176 1151 c-11 -12 -20 -42 -23 -78 -3 -47 0 -64 17 -91 17 -27 25
-32 43 -26 47 15 63 64 20 61 -22 -2 -28 2 -28 18 0 15 7 20 25 20 21 0 26 5
28 33 4 39 -21 82 -47 82 -10 0 -26 -9 -35 -19z m44 -41 c0 -11 -4 -20 -10
-20 -5 0 -10 9 -10 20 0 11 5 20 10 20 6 0 10 -9 10 -20z"/>
<path d="M2290 1154 c-16 -19 -20 -182 -5 -194 14 -11 42 -7 57 8 10 10 10 17
0 32 -6 11 -12 36 -12 56 0 32 2 35 16 23 13 -10 17 -10 25 2 5 8 9 22 9 32 0
37 18 14 35 -45 26 -93 37 -120 45 -111 5 4 18 44 30 88 12 44 27 85 32 92 13
16 1 33 -23 33 -15 0 -20 -6 -19 -22 4 -41 0 -58 -11 -58 -7 0 -10 14 -7 35 4
31 1 36 -20 42 -14 3 -33 1 -42 -5 -13 -8 -21 -7 -29 1 -10 9 -16 8 -27 -7
-12 -17 -14 -18 -14 -3 0 21 -23 22 -40 1z"/>
<path d="M2555 1156 c-15 -11 -18 -28 -19 -100 -1 -93 6 -109 43 -99 20 5 22
10 17 42 -3 20 -6 66 -6 104 0 70 -4 76 -35 53z"/>
<path d="M2630 1138 c-32 -53 -21 -156 19 -177 21 -11 61 4 63 24 0 8 1 21 2
28 1 6 -5 11 -13 9 -23 -5 -41 19 -41 54 0 30 18 60 21 35 1 -6 2 -17 3 -23 0
-7 9 -14 19 -16 13 -3 17 4 17 32 0 67 -56 89 -90 34z"/>
<path d="M2764 1162 c-49 -33 -46 -174 4 -201 16 -8 26 -6 46 10 32 25 29 44
-5 44 -17 0 -24 6 -24 20 0 15 7 20 25 20 20 0 26 6 28 27 7 55 -38 104 -74
80z m33 -52 c-1 -11 -4 -20 -8 -20 -10 0 -19 27 -12 34 12 12 22 5 20 -14z"/>
<path d="M2870 1155 c-20 -24 -16 -90 9 -121 12 -15 19 -30 15 -33 -3 -3 -14
5 -24 19 l-20 25 0 -30 c0 -16 4 -36 9 -44 10 -16 58 -18 73 -3 19 19 12 88
-11 118 -11 14 -21 32 -21 38 0 6 7 2 16 -9 12 -16 16 -17 23 -6 24 38 -40 81
-69 46z"/>
</g>
</svg>
